<svg xmlns="http://www.w3.org/2000/svg" xmlns:xlink="http://www.w3.org/1999/xlink" version="1.1" x="0px" y="0px" viewBox="0 0 100 125" enable-background="new 0 0 100 100" xml:space="preserve"><g><path d="M54.3491325,80.2613068c0.1527328-0.0276947,0.2828865-0.2466125,0.1190453-0.3596191   c-0.9043503-0.6235886-2.1832657-0.7665024-3.2395134-1.027504c-1.4736748-0.3642044-2.9210892-0.7774277-4.355278-1.2761154   c-0.0298615-0.0104218-0.0502319,0.029129-0.0215492,0.0449524c1.2731705,0.7005692,2.5857124,1.3355942,3.9411964,1.8600845   C51.8437424,79.9096527,53.2256737,80.4653015,54.3491325,80.2613068z"/><path d="M56.6882973,16.321846c0.1793556-0.5130692-0.6232452-0.3980923-0.8837776-0.4019279   c-0.5609322-0.0083637-1.1149025-0.0796785-1.6035919-0.3692951c-0.1474113-0.0873661-0.2897377,0.1419516-0.1615982,0.2488165   c0.3742905,0.3122129,0.7927132,0.5893412,1.2652359,0.7231836C55.639389,16.6174049,56.5323105,16.7681522,56.6882973,16.321846z"/><path d="M53.2495995,23.5143013c0.1490211-0.0801449,0.1246681-0.3378487-0.0297623-0.3967838   c-0.3166466-0.1209297-0.6453705-0.0696335-0.9611588-0.2372169c-0.3317604-0.1761398-0.5969276-0.4232445-0.7750244-0.7548065   c-0.0841217-0.1564102-0.3064766-0.0214577-0.2655602,0.131916c0.1171112,0.4386826,0.3783951,0.8259258,0.7716026,1.0620003   C52.341095,23.5303726,52.8663368,23.7203007,53.2495995,23.5143013z"/><path d="M52.3637962,25.0302391c-0.1232529-0.0622807-0.2746086-0.0666599-0.4071541-0.1091347   c-0.1632729-0.0523014-0.2924385-0.1476688-0.3926735-0.2864838c-0.0691299-0.0956364-0.2472954-0.020752-0.1947327,0.0968418   c0.1485558,0.3318119,0.6247711,0.7774811,1.011467,0.5230026C52.4644661,25.1993389,52.4500656,25.0738239,52.3637962,25.0302391z   "/><path d="M77.4489288,15.3502207c-0.5629196-0.8550854-1.4712677-1.2084217-2.6729507-0.6900454   c-2.0605621,0.8889351-3.5510178,4.2903728-4.6441727,6.12356c-1.7282486,2.8981762-3.2774734,5.8966007-4.9272385,8.8389511   c-1.4971581,2.6703167-3.1511765,5.14044-4.8885231,7.6074047c2.6967735-5.8937035,5.0223961-11.9987984,7.5388298-17.9631805   c0.8222198-1.9488926,6.0356293-11.7623348,0.9727402-12.200738c-1.7674637-0.1530113-3.1567459,1.6065006-4.0095596,2.8863878   c-1.7523804,2.6299114-2.9278183,5.5985165-4.0599289,8.5322628c-1.1838875,3.0681496-2.4051094,6.1075954-3.8193893,9.0784683   c-0.706768,1.4846306-1.4519997,2.9508514-2.2358856,4.3962574c-0.361824,0.6671295-0.7344551,1.3279266-1.1094704,1.9875565   c-0.2501144,0.4399834-0.8635635,1.8672981-1.2511559,1.5355873c-0.0030098-0.0025673-0.0059662-0.0051689-0.008976-0.0077362   c-0.1145592-0.1070976-0.2067909-0.3843117-0.2646942-0.8814125c0.7304497-3.4558601,1.3074799-6.8900776,2.3796768-10.2773781   c1.0118828-3.1968288,2.5537758-6.1888504,3.5703697-9.3734598c0.655674-2.0539446,1.3195496-5.1655893-0.4386597-6.9248133   c-1.3778-1.3784742-3.3943558-0.7734175-4.5407066,0.5808506c-1.8739052,2.2137661-2.5982933,5.9619761-3.4919815,8.6745701   c-1.0179367,3.0894833-1.9703712,6.2000103-2.97752,9.2929821c-1.1285706,3.4661922-2.3253174,6.9168892-3.7384338,10.2789154   c-1.378437,3.2794952-3.2563019,6.2678299-4.7611809,9.4690971c-0.0063858,0.0135422-0.0019722,0.0253258-0.0025864,0.0381317   c-0.8063774,0.4948654-1.6047707,0.9967041-2.4291229,1.3548088c-4.2118874,1.8297157-6.2221603-2.4013901-8.2309513-5.2505035   c-2.2501392-3.1914864-7.4851208-8.9126053-12.0381937-7.0206833c-2.1329689,0.5054131-1.2847147,2.9585724-0.2127762,4.2356529   c2.9612951,3.5281487,5.6134214,7.0846443,8.0973597,10.9662361c2.4051476,3.7585831,4.7570686,7.5924988,6.9823456,11.4575462   c2.2534504,3.9138641,4.1167698,8.2866211,6.6458759,12.0344849c-0.6296272,3.2215576-1.1453247,6.467392-1.6773338,9.7052231   c-0.4640999,2.8249435-1.5074768,6.2246399-0.9757729,9.080368c0.0112114,0.0600052,0.101078,0.0576935,0.0970573-0.0064621   c-0.1961708-3.1322403,1.1725845-6.6849442,1.7892342-9.7419357c0.5695496-2.8235931,1.1284752-5.6554794,1.6107864-8.4971466   c0.067337-0.0733795,0.1111069-0.1662903,0.0669937-0.2857208c-0.0034866-0.0094681-0.0078087-0.0187759-0.0113106-0.0281525   c0.0370903-0.2219162,0.0820313-0.4427948,0.1178818-0.6649017c0.0496674,0.036232,0.0971184,0.0763474,0.1477203,0.110672   c0.8687401,0.5895844,2.0414238,1.1188583,3.0344925,0.5782013c0.097168-0.0529327,0.0619812-0.1870728-0.0174675-0.2329025   c-0.5329247-0.3072891-1.0786018-0.3586426-1.6488876-0.5674362c-0.7549438-0.2764664-1.392643-0.7598495-1.9311333-1.3472748   c-0.5555534-0.6060333-0.8248062-1.5088196-1.5703659-1.858139c-0.9367218-1.7190018-1.9704132-3.4014053-2.8977089-5.066185   c-1.8501091-3.3217888-3.6256027-6.6907578-5.5680618-9.9590721c-1.8533535-3.1183777-3.8079567-6.1344299-5.9627304-9.0514603   c-1.0728703-1.4523239-2.1375313-2.9044952-3.2834206-4.3009567c-0.5282421-0.6437798-1.0677166-1.2783546-1.619709-1.9019814   c-0.5151196-0.5818977-3.4761381-3.4187393-0.8486185-4.1542892c0.0135021-0.0037537,0.0219316-0.0124092,0.0339813-0.0177155   c3.9331484-0.0541344,6.9351702,1.8691063,9.5226755,4.9225731c1.770359,2.0891457,2.909071,4.837719,4.9378433,6.687397   c4.0373764,3.6808548,8.376976-1.3360252,12.256279-2.6428261c0.1466675-0.0494003,0.0991554-0.2673302-0.0522881-0.2618828   c-1.4105453,0.050869-2.668354,0.7068405-3.8937988,1.4420662c3.2736664-3.9664879,5.2468948-9.4696274,6.9760857-14.219553   c1.956459-5.3738079,3.5533905-10.8691025,5.4194679-16.2736969c0.591362-1.7126102,3.2201385-10.7628632,6.3737602-6.5848074   c1.9335289,2.5616627-0.4758301,7.0362148-1.5002708,9.5058155c-2.1216965,5.1146317-4.0362167,10.7889519-4.4847412,16.3439865   c-0.3959045-0.1914291-0.7951012-0.3486977-1.1108894-0.4810104c-1.1626167-0.4872475-2.3171883-0.7198715-3.5752411-0.6661072   c-0.1961174,0.0083351-0.2693138,0.3145409-0.0744858,0.3884239c1.1167145,0.4237595,2.2549019,0.8276405,3.3419266,1.323719   c0.8637314,0.3941498,1.8203468,1.3194313,2.7916985,1.2689323c0.1776733-0.0091782,0.2728233-0.1806107,0.2379608-0.3406334   c0.047554-0.031208,0.0917358-0.0717278,0.1277199-0.1292496c2.6866035-4.2923546,4.997921-8.8091049,6.9167328-13.4955196   c1.8014565-4.3997574,3.1376839-10.2152462,6.5785179-13.6804705c0.3618774-0.3644304,0.964035-0.9118776,1.4853134-1.0239811   c2.8226318-0.6068883,2.048027,2.7194033,1.7967911,3.7674417c-0.3415756,1.4243336-0.9190674,2.7947817-1.4801178,4.1439104   c-0.0757904,0.1822958-0.1545715,0.3634501-0.2307587,0.5456209c-0.0991364,0.0325775-0.1971817,0.0688686-0.3016815,0.0953979   c-0.2102661,0.0534344-0.4257278,0.0668621-0.6419983,0.0617676c-0.4770813-0.011116-0.9011536-0.1774158-1.2682037-0.4807129   c-0.1337509-0.1104488-0.3024139,0.087635-0.1747208,0.2049713c0.376152,0.3456612,0.8591003,0.5791206,1.36586,0.6554356   c0.2397156,0.0360565,0.531044,0.0345821,0.8026962-0.0209904c-0.8582153,2.0458984-1.7280273,4.0871105-2.5923157,6.1303749   c-0.0315857,0.0745602-0.0647888,0.1489487-0.0964355,0.2235451c-0.0223618-0.0919189-0.0931015-0.1688328-0.2145157-0.1550636   c-0.6092911,0.0692253-1.1320381,0.0863686-1.695015-0.2113495c-0.246624-0.1303558-0.4705658-0.3014297-0.671196-0.4948235   c-0.0655251-0.0631313-0.4088058-0.3371086-0.4716949-0.4245872c-0.0181236-0.0252075-0.057579-0.0056057-0.0486641,0.0241776   c0.0382996,0.1267891-0.0088844,0.2283669,0.0316124,0.3466759c0.060482,0.1762524,0.210598,0.3531361,0.3348541,0.4881344   c0.194809,0.2116375,0.4361267,0.3819733,0.6922264,0.5117836c0.5637398,0.2858391,1.3116722,0.4229641,1.9129982,0.186758   c0.0095825-0.0037937,0.0116196-0.0139122,0.0202484-0.0186481c-2.1493607,5.049818-4.4839363,10.0696831-6.3898964,15.212883   c-0.0771713,0.2082596,0.0153999,0.3862648,0.1575966,0.4830475c-0.0154266,0.0912437,0.0732536,0.1960297,0.1599121,0.1194   c0.0163002-0.014389,0.0308342-0.0311508,0.0470581-0.0456505c0.1319389,0.0069046,0.2655754-0.0532799,0.3440514-0.2180176   c0.0331955-0.0696106,0.0644264-0.140358,0.0974731-0.2099495c3.1440697-2.9950409,5.3992195-7.1973438,7.4816017-10.9302883   c1.1567154-2.0736904,2.27285-4.1697464,3.4730682-6.2189922c0.7462387-1.2741127,4.0822296-7.5735674,6.1942215-6.2848997   c0.0086441,0.0400524,0.0073929,0.0803814,0.0404434,0.1188202c1.2870178,1.4970617-0.2958603,3.8806658-0.9369049,5.3116789   c-0.5933228,1.3243809-1.2023392,2.6417713-1.8276672,3.9513912c-0.8008118,1.6771564-1.6344528,3.3386841-2.4812927,4.9935112   c-0.0552444,0.0179939-0.1095352,0.0366898-0.1695175,0.0542469c-0.2027435,0.0593739-0.4127197,0.0866356-0.6239014,0.0851688   c-0.4488525-0.0030937-0.8880386-0.1001968-1.2680206-0.3425388c-0.1278381-0.0815754-0.2673798,0.132988-0.1454163,0.2239437   c0.4031067,0.3006992,0.8541794,0.5181942,1.3617172,0.5430603c0.1488953,0.0073166,0.3569946,0.0076237,0.5635986-0.0191021   c-0.1243439,0.2414322-0.2488556,0.4827366-0.3740005,0.7236843c-0.5743332-0.0053959-1.1236649-0.0739746-1.6742859-0.2631378   c-0.468338-0.1608295-1.1778946-0.3373165-1.5617905-0.6624012c-0.0957642-0.0811501-0.2023239,0.0564709-0.1229095,0.144186   c0.240387,0.2657356,0.3476105,0.4845695,0.6523819,0.6967163c0.2982941,0.2077293,0.6235428,0.3422871,0.9665527,0.4555874   c0.4382324,0.1447792,0.9235458,0.2655029,1.40065,0.2856636c-0.1488647,0.2843513-0.29216,0.5717583-0.4421387,0.8555183   c-1.184494,2.2416229-2.5335236,4.4128075-3.6598816,6.6822968c-0.5620651,1.1324005-0.9034042,2.1595535-0.8534012,3.326416   c-0.0285645,0.0109444-0.0524826,0.032959-0.050827,0.0764046c0.0415344,1.1049271-0.1462402,2.3240128,1.3547592,2.3428116   c1.5976105,0.0200119,3.4779205-1.8299026,4.6977539-2.7112999c1.8811264-1.3593178,3.654892-2.8580132,5.3429871-4.4495544   c1.6582413-1.5635147,4.6848984-5.6884575,7.255806-4.406456c0.3149414,0.6304016,0.5299683,1.2703209,0.0359344,2.2013741   c-0.3010406,0.5674515-1.0347672,1.1924286-1.451088,1.6602631c-1.2946243,1.4547234-2.6063309,2.8943329-3.9339447,4.3189125   c-0.4716034,0.5060349-0.9705963,1.0079994-1.4772797,1.5098572c-0.0193863-0.092907-0.0676575-0.1795692-0.1420822-0.2434158   c-0.4897156-0.4199982-0.8448257-0.9128265-1.2439957-1.4119263c-0.2305298-0.2882233-0.6866989-0.0772781-0.5841675,0.2903404   c0.1982193,0.7102623,0.706871,1.316246,1.2586899,1.7895355c0.0533676,0.0457916,0.1225052,0.0723152,0.1943741,0.0878563   c-1.9496155,1.9076271-3.9973373,3.8380852-5.5290985,5.9935226c-0.2503891,0.124649-0.4853745,0.2763481-0.7119598,0.4424438   c-0.375351-0.2921066-0.8983994-0.4364967-1.2684174-0.7717018c-0.4862823-0.4405975-0.9680099-1.0341721-1.1709366-1.6685486   c-0.0222473-0.0695992-0.1327209-0.0484734-0.1260757,0.0251846c0.0714722,0.7915039,0.2360764,1.4573479,0.8035431,2.0538826   c0.2875748,0.3022957,0.7319717,0.6784248,1.190567,0.8387108c-1.7180023,1.6363602-2.6953888,4.3860092-3.4122467,6.3842812   c-1.4118576,3.9359779-3.0459976,7.6431198-4.9835472,11.3505478c-1.0919304,2.0893402-2.1358261,4.1631851-2.995594,6.2618561   c-0.7835579,0.570343-1.3753357,1.3427124-2.2716408,1.7649307c-1.5277367,0.7195892-3.1467323,0.1971741-4.6501198-0.3057556   c-1.5428848-0.5161819-2.8783646-0.9616089-4.5195389-1.0065002c-0.033947-0.0009766-0.0370483,0.0544281-0.0036583,0.0592728   c2.653923,0.3793945,4.806366,2.4522476,7.5492783,2.5257645c1.1519928,0.0309372,2.2691765-0.355484,3.147213-1.0500946   c-1.3153725,3.8241653-1.8833961,7.7714767-0.8648605,12.0838165c0.0038681,0.0163651,0.032238,0.0108795,0.0290985-0.0058212   c-1.3451691-7.0548325,2.4411278-14.2353592,5.5926056-20.2633133c1.6627655-3.1805801,3.18013-6.3588524,4.3655014-9.7487679   c0.5125961-1.4657021,1.0078888-2.9473114,1.6911545-4.3452301c0.8782883-1.79673,2.1526794-2.9257088,3.3918839-4.4135513   c0.0514145-0.0617142,0.0584106-0.1324692,0.0481949-0.2010841c1.6508026-1.2785378,3.0829544-2.9397812,4.51577-4.4063797   c1.9442062-1.9902306,3.8409958-4.0269585,5.7087021-6.0890045c1.4054871-1.5516586,4.2881699-4.2472992,2.7264175-6.2379036   c-1.1497574-2.7546711-4.9889145,0.3617287-6.2393417,1.4982872c-1.9073105,1.7335777-3.6955643,3.5801849-5.6977997,5.210434   c-0.9324265,0.7592125-1.8864288,1.4935036-2.8653564,2.191864c-0.7284775,0.5196571-3.9617996,3.2737465-4.5526657,0.9567528   c0.0491409-2.3222923,2.0683365-4.4706841,3.1843185-6.3740044c1.6685867-2.8460464,3.241333-5.749918,4.7117691-8.703104   c1.4083328-2.8283844,2.80056-5.6895409,4.0065308-8.6112461C78.0910568,17.9087353,78.671524,16.1875477,77.4489288,15.3502207z"/><path d="M74.2879944,22.8080101c0.1156616-0.0483913,0.1515427-0.1934643,0.0539856-0.2811108   c-0.1707535-0.1534348-0.4402161-0.1655178-0.6586609-0.1903439c-0.2783813-0.0316887-0.3614578,0.3682022-0.0826874,0.4309254   C73.8116684,22.814888,74.0798569,22.8950367,74.2879944,22.8080101z"/><path d="M64.9750519,42.1311111c0.0980988,0.0221405,0.1751404-0.0788727,0.1472626-0.1689568   c-0.1431274-0.4639397-0.6630402-0.7773476-1.0723953-1.0023193c-0.5069504-0.2785873-1.0961075-0.4003944-1.6455574-0.5613556   c-0.0271988-0.0080109-0.0411911,0.0357895-0.0154457,0.0469322c0.5512352,0.2375221,1.0043221,0.6122856,1.4810295,0.9670639   C64.21492,41.6692619,64.547348,42.0343208,64.9750519,42.1311111z"/><path d="M81.6229095,37.8769684c0.0562592-0.0580826,0.0943451-0.1147308,0.125824-0.1892166   c0.1033325-0.2446594-0.0696793-0.4998322-0.3351746-0.4943504c-0.0808105,0.0017281-0.1476059,0.016037-0.2223511,0.0468559   C80.5840607,37.4904938,81.1628876,38.3512344,81.6229095,37.8769684z"/><path d="M63.564743,54.7436295c-1.6533699-1.8059998-3.8163528-3.276722-5.6790199-4.8729744   c-1.8900795-1.6196899-3.7997551-3.2366562-5.6517067-4.896656c-0.0438004-0.0391731-0.0973663,0.0273323-0.0582237,0.0683136   c1.8241997,1.909977,3.653347,3.7697296,5.6319962,5.5268478c1.7392578,1.5444031,3.5381203,3.3182449,5.5737877,4.4564972   C63.5636749,55.1273956,63.6837997,54.8736534,63.564743,54.7436295z"/><path d="M56.0870628,57.9912415c0.0485344,0.10849,0.2220421,0.0887146,0.2133751-0.0425186   c-0.3152771-4.7901154-4.0828552-9.6216774-7.5855026-12.6034889c-0.024601-0.0210533-0.0550613,0.015564-0.0323677,0.0379105   c1.7486382,1.7173347,3.3328972,3.6871223,4.5719299,5.8087616C54.5310135,53.3777351,55.0712357,55.720089,56.0870628,57.9912415z   "/><path d="M48.2604675,57.481575c0.0664673,0.1628227,0.2842636,0.1096039,0.2910118-0.0580559   c0.1033859-2.5783119-0.7634048-5.3754959-1.3451691-7.8746109c-0.6011124-2.5825996-1.9087944-3.8930359-3.4352913-6.0135918   c-0.0636215-0.0883331-0.2012939,0.0042152-0.1403465,0.0951576c0.6407509,0.9557037,1.454834,1.7805405,2.0860138,2.7387657   c0.9240417,1.402935,1.0592804,2.8262596,1.2582397,4.4301529C47.2461853,52.9854698,47.4229202,55.4300194,48.2604675,57.481575z"/><path d="M48.0463676,66.0282059c0.0091515-0.0634766-0.088768-0.1043243-0.112751-0.0370636   c-0.9234009,2.5859375-6.5078735,5.4457321-8.950943,3.8954697c-0.010849-0.0068665-0.0215302,0.0105438-0.0121078,0.018692   C41.7849197,72.3232651,47.5371513,69.5506134,48.0463676,66.0282059z"/><path d="M50.2480888,74.1459045c1.1397705,0.5574722,2.3059769,1.1118698,3.4978256,1.5499039   c0.2427635,0.0892792,0.4230843-0.2672348,0.1763573-0.368927c-1.1849098-0.4884949-2.4275627-0.8726959-3.6556015-1.2373428   C50.2334404,74.0796585,50.2183609,74.1313477,50.2480888,74.1459045z"/><path d="M43.4247093,81.6770096c-0.4662323,0.9253159-0.4517517,2.2321625-0.5061493,3.2471466   c-0.0587158,1.0949707-0.0137062,2.0991135,0.4289818,3.1103134c0.0063705,0.0146637,0.0279236,0.0076752,0.0235901-0.0079727   c-0.3054733-1.1109772-0.2756004-2.4059525-0.1437492-3.5369263c0.1062164-0.911026,0.466156-1.849823,0.4531631-2.7635117   C43.6785049,81.586441,43.4825668,81.5620041,43.4247093,81.6770096z"/><path d="M43.8247223,80.6295471c0.0704918-0.0476379,0.0398712-0.1461105-0.0343857-0.1669388   c-0.374279-0.1050491-0.7914467-0.0166626-1.1806679-0.1018143c-0.4676247-0.1021347-0.9289665-0.2944717-1.3349304-0.5477219   c-0.0549202-0.034256-0.1134262,0.0562515-0.0619507,0.0953903c0.4130592,0.3142014,0.8387108,0.5852432,1.343998,0.7279282   C42.9273567,80.7410126,43.4833908,80.8600159,43.8247223,80.6295471z"/><path d="M46.5272179,81.6010132c-0.0915375-0.0575638-0.2085457-0.0719681-0.3253288,0.0072098   c-0.3372955,0.2286911,0.0175209,0.7531815,0.3553581,0.5241165c0.0041351-0.0028,0.005455-0.0067139,0.0094261-0.0096436   c0.1939697,0.7506256,0.2702217,1.5401611,0.3355331,2.3067703c0.0654716,0.7682495-0.0219994,1.6277237,0.286293,2.3435745   c0.040062,0.0929489,0.1657372,0.0851135,0.1924171-0.0132065c0.22155-0.8163757,0.0175896-1.797905-0.0680389-2.6296158   c-0.0807648-0.7837753-0.1900864-1.5817871-0.4954376-2.3127518c-0.0048981-0.0082779-0.0038605-0.0178757-0.0096817-0.025528   c-0.0182228-0.0426941-0.029789-0.0875168-0.0493927-0.1296692C46.7097893,81.5577011,46.5991478,81.552803,46.5272179,81.6010132z   "/><path d="M25.7998505,42.5887184c-0.0972977,0.3348656-0.0166035,0.6803551-0.1484013,1.0131874   c-0.1313171,0.3315544-0.4005547,0.611412-0.6695614,0.8370171c-0.4807777,0.4033432-1.0479603,0.685112-1.5534096,1.0537109   c-0.1663857,0.1213112,0.0009403,0.3538055,0.1762581,0.2599602c0.7224121-0.3863754,1.5589733-0.789856,2.1031342-1.4203911   c0.3916473-0.4537277,0.7176533-1.2519493,0.335659-1.7936783C25.9719448,42.4371643,25.831583,42.4793472,25.7998505,42.5887184z"/><path d="M26.9769363,45.9845009c0.1271667-0.1345177,0.2977257-0.2632637,0.3345375-0.4506721   c0.0153275-0.0783882-0.0591774-0.1309853-0.1300316-0.1132889c-0.1834431,0.0458946-0.3089752,0.2355461-0.4279823,0.3734283   c-0.1442356,0.1672211-0.2713547,0.3451576-0.4014454,0.5230446c-0.0812149,0.1109085,0.0667534,0.2392845,0.163187,0.1391068   C26.6677113,46.2975883,26.8255692,46.1444855,26.9769363,45.9845009z"/><path d="M28.2561741,52.1074371c1.1436214-0.604126,2.2156124-1.7541885,2.4975071-3.0537796   c0.0284843-0.1309204-0.1455116-0.2085228-0.230238-0.1106415c-0.362545,0.4182663-0.5599442,0.9488907-0.8429737,1.4217567   c-0.3896503,0.6510468-0.8714561,1.2006149-1.519453,1.602314C28.0665016,52.0256882,28.1618443,52.1571732,28.2561741,52.1074371z   "/></g></svg>