<svg xmlns="http://www.w3.org/2000/svg" xmlns:xlink="http://www.w3.org/1999/xlink" version="1.1" x="0px" y="0px" viewBox="0 0 100 125" enable-background="new 0 0 100 100" xml:space="preserve"><g><path d="M43.8205185,62.1284599c0.7499275-0.7718239,1.8922043-2.0541077,1.7496605-3.2049561   c-0.0159302-0.1285858-0.1671715-0.1806259-0.245491-0.0665131c-0.3676643,0.536232-0.5421982,1.1744576-0.8963432,1.7261734   c-0.3971138,0.6185493-0.8906326,1.1860085-1.4127121,1.7023125c-0.9224281,0.9122734-2.128685,1.3995743-3.1014404,2.2433014   c-0.0203743,0.0176468,0.0088196,0.0454483,0.0291939,0.0291977c0.7386284-0.5910683,1.6323051-0.7972107,2.4329414-1.2667389   C42.9100876,62.9782829,43.3905945,62.5708237,43.8205185,62.1284599z"/><path d="M43.1243515,57.5185356c-1.789959-0.1659012-3.8563805-0.0152321-5.6383438,0.2357788   c-0.0783806,0.0110435-0.0587692,0.1389313,0.0185318,0.1370277c1.7796135-0.0438576,3.9503136,0.4431229,5.6418343-0.2104568   C43.2340202,57.6469917,43.2194862,57.527359,43.1243515,57.5185356z"/><path d="M43.9981003,76.430809c-0.0158653,0.0070419-0.0043793,0.0349045,0.0119324,0.0283051   c2.2372742-0.8982468,3.2460823-2.9293823,4.4591904-4.8754044c1.387516-2.2257919,2.2927437-4.8734436,1.7293472-7.51754   c-0.0281792-0.1322632-0.2335587-0.1287117-0.2640228,0c-0.5855446,2.4729919-0.5845947,4.6730118-1.8545685,6.9682312   C47.0094185,72.9692535,46.1348419,75.4829941,43.9981003,76.430809z"/><path d="M47.0782814,68.0963211c0.0300827-0.0922165-0.1037712-0.1762466-0.1683807-0.0979919   c-0.867527,1.0515823-1.4431725,2.2459106-2.4866982,3.1707458c-1.1790886,1.0449829-2.5480728,1.7381744-4.0590935,2.1698151   c-0.0255775,0.0072937-0.0148506,0.0464554,0.0109787,0.039856C43.1451035,72.6655045,46.126339,71.0116196,47.0782814,68.0963211z   "/><path d="M41.3691063,79.4327927c2.8570938-1.3392792,6.13237-2.6364136,8.1994286-5.1394882   c0.0493126-0.0597229-0.0178337-0.1734543-0.0907593-0.1176682c-2.6169319,2.0032043-5.173954,3.7310944-8.124279,5.2303772   C41.3355331,79.4151535,41.3512726,79.4411774,41.3691063,79.4327927z"/><path d="M47.9624405,77.9690552c-0.0211983,0.009201-0.0059662,0.0461426,0.0159302,0.0377655   c0.8807297-0.3356171,1.5348854-0.9875488,2.1114197-1.7164001c0.6347313-0.8024139,1.3502579-1.7560043,1.7933846-2.6799622   c0.0293846-0.0613022-0.0446815-0.1268005-0.0973587-0.0751419c-0.6021118,0.5908813-0.9942741,1.4718628-1.4698944,2.1656876   C49.6967392,76.6042633,48.9929504,77.5209808,47.9624405,77.9690552z"/><path d="M58.3258972,80.6315613c0,0.0065994,0.0102844,0.0066605,0.0102844,0c0-0.0367508,0-0.073494,0-0.1102448   c0-0.0065994-0.0102844-0.0066605-0.0102844,0C58.3258972,80.5580673,58.3258972,80.5948105,58.3258972,80.6315613z"/><path d="M50.7912254,57.4399643c0.5104637,0.1697731,1.114418,0.0714645,1.5672531,0.4020004   c0.4085999,0.2981644,0.4893303,0.789463,0.4365273,1.2649574c-0.1152573,1.0376854-0.8152351,1.7065659-1.3249359,2.5544853   c-0.0154228,0.0255775,0.009964,0.0563583,0.0378876,0.0493126c1.1659546-0.2958183,1.948185-1.9415169,1.8965836-3.0609474   c-0.05896-1.2786713-1.496994-2.1450577-2.6552658-1.5308266C50.6086311,57.1935844,50.6550255,57.3946495,50.7912254,57.4399643z"/><path d="M62.3413277,7.6066403c-1.0941696,1.0755744-1.3887215,2.6407971-2.0620422,4.20894   c-1.2803192,2.9815512-2.5294762,6.1227226-3.4957619,9.2196579c-0.9712982,3.1128025-1.8543777,6.2538452-2.8230095,9.3676624   c-0.4593124,1.4766235-0.9487686,2.9402351-1.3453102,4.4362144c-0.3616982,1.3646049-1.0742416,5.7316399-3.5419655,4.4673157   c-2.1194801-1.3379478-1.900074-5.4231262-1.9155617-7.5976334c-0.0249405-3.516325-0.2412376-6.9334507-0.5984306-10.4430466   c-0.2598953-2.554039-0.4266243-5.082119-0.5948105-7.6428213c-0.1190643-1.8122368-0.3579559-3.7092009-1.1639862-5.3623257   c-1.2482681-2.5601311-4.4369774-2.8225036-5.5515213,0.0184059c-0.0481682,0.1227446,0.0109177,0.2067747,0.096981,0.2538671   c-0.4220581,1.5197811-0.3550377,2.9993868-0.3292694,4.5997696c0.0322418,1.9973698-0.1870995,3.9849014-0.2703056,5.9788437   c-0.1606331,3.8535881,0.2709427,7.643774,0.2850952,11.4847317c0.0133896,3.6467476,0.0544548,7.3826065-0.1882439,11.0198975   c-0.2100105,3.1473312-1.3562889,6.0321579-2.3503113,8.9781685c-0.3596039,0.7695999-0.7584915,1.5411682-1.0340004,2.1965294   c-0.3678551,0.8750191-0.8174553,1.7101822-1.2446518,2.5561333c-0.0506477,0.0448685-0.0955811,0.0950089-0.1475601,0.1386757   c-0.026722,0.0223389,0.0088196,0.0691147,0.0375061,0.0486755c0.00914-0.0065346,0.016819-0.014595,0.025959-0.0211334   c-0.1954765,0.3912125-0.3858795,0.7848969-0.5573044,1.1878471c-1.2804451,3.0104942-1.660677,6.2802505-1.6916485,9.5261421   c-0.0494404,5.1948395,0.5390873,10.3421326,0.9744091,15.4965439c-0.0318604,1.1277466,0.0318604,2.2632294,0.1059265,3.3828506   c0.1153183,1.7414703,0.0475998,3.485733,0.2428894,5.2219391c0.0003777,0.0032349,0.0052681,0.0034256,0.0052032,0   c-0.0172005-0.8288193,0.0019035-1.6593475,0.0335121-2.4907608c0.0100899,0.2793808,0.0281792,0.5583191,0.0353508,0.8378906   c0.0012665,0.0498199,0.0767937,0.0500107,0.0774918,0c0.0147896-1.0541916,0.0067291-2.1064072-0.0112343-3.1577377   c0.0756531-1.7771378,0.1125259-3.5552292-0.1162071-5.3271637c-0.0055847-0.0430984-0.0357323-0.0741959-0.071209-0.0974197   c-0.2103958-4.360817-0.5076752-8.7140808-0.5296974-13.0915909c-0.0190392-3.7957077,0.4476967-7.5203285,2.1175766-10.9694443   c0.3290749-0.6798592,0.6987724-1.3481636,1.0248642-2.0340538c0.4519501-0.5085602,0.8729248-1.0475197,1.2831764-1.5907974   c0.4587402-0.6074448,0.8694344-1.2451591,1.3151627-1.8613625c0.8776855-1.2136154,1.869545-1.9145432,2.9657478-2.8989182   c0.4464912-0.4009819,0.7477036-0.9097328,1.171917-1.3126869c1.3373795-1.2704811,2.8167915-1.1646805,4.4559555-0.6202621   c1.5669365,0.5203667,2.977108,0.6721153,4.5433464,0.7230148c-0.2443466,0.1723137-0.4479485,0.4619789-0.5566673,0.6811295   c-0.2662468,0.5367393-0.3122597,1.1763611-0.1981468,1.7584801c0.1562576,0.7968254,0.6578369,1.5026436,1.3580055,1.8358459   c-0.3132095-0.0129471-0.6262932-0.0288162-0.9400749-0.0234833c-0.0953903,0.0016518-0.1021156,0.1251564-0.0212593,0.1572723   c0.7558899,0.299881,1.581852,0.2734146,2.3854065,0.2593231c0.788578-0.0138359,1.6280556,0.0368767,2.3982277-0.139183   c0.0884094-0.0202446,0.0836487-0.151432,0-0.1743431c-0.7148933-0.1953506-1.4813843-0.0756531-2.2155075-0.050518   c-0.322731,0.0110435-0.6436806-0.0036812-0.9648247-0.0157394c-0.7735977-0.3240623-1.1976204-1.1453247-1.3203659-1.9874077   c-0.0660057-0.4530907-0.0316696-0.9166527,0.1745949-1.3309631c0.1596832-0.3207626,0.5390892-0.542263,0.5897369-0.8960915   c0.003109-0.0219612-0.0054588-0.0375748-0.0081863-0.0564232c0.1035767,0.0016518,0.1990967,0.006855,0.304512,0.0079956   c0.0762253,0.0008278,0.1250954-0.041317,0.1599388-0.09412c0.9860878,0.1199532,1.9684906,0.2515182,2.8834953,0.5480385   c1.4370193,0.4656563,2.2343559,1.229229,1.6441116,2.6913795c-0.291378,0.7220001-0.8393517,1.3643494-1.3776131,1.9087715   c-1.4359398,1.4525681-2.7976265,1.8288612-4.8443718,1.8859215c-2.4919701,0.0694962-4.5070457,0.491169-6.1822548-1.7047234   c-0.0765419-0.1002808-0.2807808-0.0489998-0.2265778,0.0955811c0.3359947,0.8960266,0.8309708,1.4711647,1.4356842,1.836544   c-0.0073586,0.0166893-0.0237999,0.0238609-0.0274811,0.0439186c-0.3760414,2.0515709-1.1146698,3.5608139-2.6194077,5.0640297   c-1.2899017,1.2885704-2.8031464,2.5288429-4.3216591,3.54533c-0.0684776,0.0457573-0.0072975,0.1539078,0.0651817,0.1114464   c2.6705017-1.5631905,8.2851067-4.6002121,7.4182739-8.5236778c0.956955,0.3732491,2.1154213,0.3695679,3.3520088,0.2753181   c0.2896652-0.0220871,0.5768547-0.0448685,0.8623924-0.0696869c-0.9973221,1.281147-0.9970055,3.4179535-1.1681099,4.9303703   c-0.0817451,0.7223167-0.1348686,1.5929565,0.1333427,2.2718658c-0.0163765-0.0152321-0.0346527-0.02742-0.0507736-0.0430336   c-0.1474342-0.1425438-0.3544617,0.0707664-0.2227707,0.2227707c0.9084663,1.0490456,2.131031,1.6542015,3.4990616,1.0692291   c0.6473656-0.276844,1.2993622-0.8264694,1.7404556-1.4830971c0.2686577,1.2852058,1.815094,2.3144493,3.3078384,2.0051117   c1.3400383-0.277668,1.9132118-1.6969795,2.5620956-2.7226715c1.2846985-2.0307503,3.0994759-4.6910973,5.0906868-6.0631256   c0.1940842-0.1337242,0.0820618-0.480381-0.169136-0.4012375c-1.88237,0.5930328-3.0131607,2.8561401-4.1494751,4.3231773   c-0.7247925,0.9356956-1.369297,1.9217186-2.0651512,2.8760071c-1.6308479,2.2363853-4.1529617,1.0022087-3.8532715-1.6600418   c0.2920761-0.59132,0.6867142-1.1205101,1.0925865-1.6456337c0.0108528,0.0244331,0.0198021,0.0506439,0.0428391,0.0660057   c0.3389778,0.2265129,0.7732811,0.1118927,1.1340904,0.309845c0.3445625,0.189003,0.5519714,0.5515289,0.6013489,0.9360733   c0.1025009,0.7987976-0.4386826,1.7687607-1.1309814,2.148674c-0.0225296,0.0123787-0.0069809,0.0525513,0.0178986,0.0425262   c1.0181389-0.4093018,1.7320786-1.2581062,1.5625572-2.4199982c-0.1148758-0.7873077-1.2421761-1.8194695-2.0503006-1.3198586   c0.1700935-0.2245483,0.3377075-0.4509964,0.4883156-0.6889343c0.7055626-1.114418,1.2650223-2.3181953,1.9020424-3.4713287   c0.9240799-1.6730499,2.3618584-5.4054794,4.3382225-5.9505997c0.0062828-0.0017128,0.0070419-0.0073624,0.0130081-0.0093307   c1.6878395,0.486412,3.1846504,2.6062088,3.4696159,3.8888779c0.2819824,1.2696571,0.338974,2.7157516,0.47892,4.0156174   c0.1969986,1.8302612,0.0675964,3.5742722-0.2685318,5.3821907c-0.160759,0.8649292-0.2897873,1.9624023-0.7341843,2.7905197   c-0.3545227-0.5922127-0.9864655-1.0248032-2.0309448-1.182457c-0.0587006-0.0088844-0.0817413,0.0685463-0.0247498,0.0896797   c2.5723801,0.9527054,1.5531616,3.4758949,0.9297256,5.5088081c-0.7753067,2.5281448-2.2151871,4.8865738-3.418457,7.2356796   c-1.0482178,2.0463638-2.5949097,3.7767334-3.5856934,5.8508301c-0.1719322,0.3598557-0.2943611,0.6963577-0.3941917,1.0249939   c-1.9231148,3.2901306-0.8586464,8.6941528,0.4079018,11.7432327c0.006218,0.0149155,0.0302086,0.0093918,0.0249405-0.0067902   c-0.6868401-2.1065979-0.9471169-4.4688416-0.8141518-6.6791382c0.1440697-2.395752,1.0584373-4.1930084,1.7977638-6.3988724   c0.0265312-0.0791397-0.0299568-0.1278839-0.0950089-0.1376572c0.598114-0.9269333,1.2912369-1.8024597,1.906929-2.706871   c1.6152344-2.3727112,3.1019516-5.1808701,4.2325516-7.817543c0.71978-1.6787033,1.8341904-4.2968369,1.2847595-6.0239029   c0.8754654-0.9603844,1.0901718-2.7425346,1.3168106-3.9217529c0.5165634-2.68713,0.148262-5.2608414-0.1421661-7.9442902   c-0.1778946-1.6436653-0.6719894-3.1126747-1.9777527-4.1742859c-0.8392868-0.6823349-1.8152237-1.3784409-2.7839813-1.2935829   c0.8198013-2.68713-1.3279839-5.5445404-3.9462509-6.1760368c3.1741753-7.6961327,4.5503922-15.9809856,6.4434891-24.0520191   c0.5698013-2.4291983,2.1614914-5.7409058,1.4025497-8.3178558c-0.6217194-2.1111655-2.9835777-1.751308-4.4421768-0.6976924   C62.3389168,7.4557791,62.3278084,7.5340338,62.3413277,7.6066403z M66.2596512,8.2625713   c0.2298126,0.5364866,0.1397552,1.3902445,0.0821304,1.9722366c-0.1278915,1.2916803-0.485527,2.5696516-0.8174591,3.8200779   c-0.7552567,2.8452244-1.3907471,5.7327175-2.2825241,8.5375786c-0.9108162,2.8648357-1.4266129,5.7867928-2.11269,8.7070351   c-0.7225723,3.0754814-2.1446114,5.9690056-2.7482452,9.0583267c-0.0257683-0.0025406-0.0509644-0.0090141-0.0767975-0.0110435   c-2.9932289-0.2387657-4.4129219,2.9083099-4.6381683,5.4637451c-0.0129471,0.1466713,0.2084274,0.1989059,0.2743073,0.0743179   c0.8487434-1.6058388,1.3137016-4.2392769,3.4196014-4.6787224c1.591114-0.332058,3.3412819,0.6679916,4.1816483,1.9688721   c0.7692184,1.1907043,0.6909027,2.3911819,0.6412697,3.7332573c-0.1104965,0.0660667-0.2213745,0.1252213-0.33041,0.2197227   c-0.0541992,0.0469666-0.0536919,0.113987-0.0291939,0.1712341c-0.3920364,0.2989922-0.7337418,0.7222519-1.0407333,1.1950188   c0.0776863-0.2320976,0.1448326-0.4715614,0.1916084-0.7292976c0.110939-0.6111259,0.3705826-1.5869293-0.0126305-2.1206245   c-0.0492516-0.0686073-0.1434975-0.0739365-0.1917953,0c-0.3351059,0.5130043-0.1733932,1.3955765-0.26688,1.9907074   c-0.1221085,0.7767715-0.2904243,1.6445541-0.7114639,2.31464c-0.0583916,0.0929146,0.0540733,0.1629829,0.1317558,0.1170959   c-0.2983589,0.6169624-0.5628242,1.2030182-0.813076,1.6279297c-0.9205856,1.5631256-1.685112,3.2113647-2.6072845,4.7722702   c-0.553051,0.9360123-1.3145294,1.7357597-1.5212402,2.7594185c-0.1042786-0.0255775-0.2246094,0.0075531-0.2937889,0.1151314   c-0.5816765,0.9046555-0.8274841,1.8584366-1.8329277,2.4355431c-0.8069839,0.4632454-1.6936798,0.4105034-2.4574394,0.0138359   c-0.6374016-0.9838638-0.2039223-2.4664536-0.0443649-3.5519295c0.2284164-1.5543709,0.5274734-2.804924,1.1555443-4.2431488   c1.954464-0.2221336,3.7643509-0.6811256,5.203022-2.2276268c0.9781532-1.0514565,2.0804482-2.7974968,1.1094017-4.200119   c-0.5498123-0.7940979-1.5866737-1.0358429-2.4669609-1.2249756c-1.3957672-0.2999458-2.9750137-0.690712-4.444149-0.7142563   c-0.3512268-0.0519791-0.7096252-0.0797157-1.049427-0.1250305c-1.0582466-0.1410866-2.1774254-0.3040695-3.1815987-0.6768761   c-0.0647354-0.0240555-0.1116371,0.0250702-0.1242676,0.0814934c-0.3610649-0.1160812-0.7259369-0.2199135-1.1062927-0.2739868   c-1.3798981-0.1963043-2.3388863,0.0769196-3.2686157,1.0738602c-1.2473145,1.3375015-2.7611923,2.4922829-3.8507309,3.9727135   c-0.7638893,1.0378761-1.4108696,2.195961-2.1347733,3.2888603c0.0665131-0.1872292,0.1401978-0.371727,0.1914787-0.5647278   c0.2740517-1.0314026,0.756588-2.0532837,1.0230255-3.0868454c0.8978653-1.9892464,1.7350578-3.9965134,2.0242157-6.1901245   c0.4723206-3.5840454,0.2457428-7.3303719,0.3226013-10.9434853c0.0811729-3.8141117-0.4065704-7.5971241-0.3169556-11.4144096   c0.044239-1.8862381,0.2096977-3.761879,0.2951241-5.6452608c0.1054802-2.324542-0.2769699-4.6387386,0.1965561-6.9394169   c0.0007629-0.0037441-0.0022202-0.0057116-0.0015869-0.0093927c3.1636391-3.9804592,4.9591179,1.8605976,5.2327271,4.3181658   c0.2529144,2.2714205,0.1841164,4.561944,0.454422,6.8339987c0.4213562,3.5419006,0.8662605,7.1234074,0.8396034,10.6941223   c-0.0142136,1.9208279-0.4792366,9.8795891,2.9188499,9.8846664c3.2267876,1.6072998,5.0643463-8.8690681,5.526577-10.4438744   c1.1012802-3.7524204,2.2343559-7.5556164,3.6827354-11.1892281c0.7342491-1.8421288,1.3805962-3.7198,2.1231613-5.5567884   c0.5723457-1.4159489,1.343277-4.1606417,2.5109444-5.2438326C64.28405,7.0500984,65.6765213,6.9011412,66.2596512,8.2625713z"/><path d="M45.1072502,17.0803566c0.0196724-0.061182-0.0233574-0.1203976-0.0793991-0.1397533   c-0.3323746-0.1150036-0.8463936,0.2343826-1.1832123,0.3218403c-0.5001221,0.1298542-1.1783943,0.3051491-1.686573,0.1363277   c-0.1196365-0.039732-0.1608887,0.1384201-0.0508385,0.1843071c0.5583191,0.2327976,1.095314,0.2276554,1.6832733,0.1018639   C44.1520081,17.6076412,44.9762535,17.4873066,45.1072502,17.0803566z"/><path d="M45.1345406,24.3228912c-0.0017128-0.0652447-0.0422058-0.1098614-0.1004677-0.1320114   c-0.1740913-0.0660686-0.293026,0.0180893-0.4579163,0.0788898c-0.3010216,0.1110668-0.5994453,0.1712971-0.9190636,0.2053795   c-0.5605392,0.0597229-1.1546555,0.0578823-1.7029457-0.0837765c-0.2015076-0.0520439-0.2669449,0.229496-0.0837784,0.3038158   c0.6281357,0.2548199,1.3549576,0.3226032,2.0251694,0.2510128C44.2368011,24.909708,45.1478691,24.8192024,45.1345406,24.3228912z   "/><path d="M45.9548531,38.4467697c0.0950089-0.0593414,0.0987511-0.2001724,0-0.2586899   c-0.4379234-0.2593918-1.0466347-0.1045952-1.5258751,0.0121841c-0.6427307,0.1566353-1.2412224,0.4233894-1.8658676,0.6307373   c-0.0471535,0.0156746-0.0282402,0.0861855,0.0206299,0.0746994c0.6184845-0.1454048,1.2727013-0.2201691,1.9054031-0.2606583   C44.9756813,38.6138802,45.5332413,38.7099686,45.9548531,38.4467697z"/><path d="M52.4557724,39.4025192c-0.1188087,0.0441742-0.1309319,0.2143288,0,0.2540588   c1.431118,0.4335442,3.0537148-0.6657066,4.5516014-0.3424683c0.0064087,0.0013962,0.009201-0.0083122,0.0027275-0.009964   c-0.8154221-0.2084274-1.420517-0.3456421-2.2747192-0.2478371C53.9903412,39.1415443,53.1563873,39.1417961,52.4557724,39.4025192   z"/><path d="M57.9791794,28.587429c0.3698235,0.1339149,0.8010178,0.0732403,1.191021,0.0716534   c0.4553108-0.0017776,0.9096718-0.0189133,1.364666-0.035223c0.1461639-0.0052052,0.1464195-0.2220078,0-0.2272758   c-0.4551201-0.0163116-0.9092903-0.0334473-1.364666-0.0352249c-0.3934326-0.0015221-0.8181534-0.0633392-1.191021,0.0716553   C57.9034004,28.4604301,57.9032707,28.559948,57.9791794,28.587429z"/><path d="M57.0394249,26.6111298c-0.142231,0.0919647-0.0546455,0.351862,0.1213455,0.2879505   c0.7433281-0.269989,1.4634247-0.377882,2.2537155-0.3149242c0.56987,0.0453167,1.2428741,0.2849045,1.7482605-0.0360489   c0.0736198-0.046711,0.1124649-0.1761837,0.0308456-0.2392712c-0.523159-0.4046021-1.3801537-0.3103523-2.0188217-0.3034992   C58.3942528,26.0137157,57.6966858,26.1859016,57.0394249,26.6111298z"/><path d="M60.7552872,18.2097511c0.5965271,0.0083141,1.158783,0.2331791,1.7407722,0.3439274   c0.3877831,0.0738125,0.7907372,0.1839275,1.1126404-0.0825691c0.0742569-0.0615005,0.039032-0.172821-0.028244-0.2190895   c-0.3668365-0.2524071-0.9701538-0.2048702-1.4041405-0.2921371c-0.4735909-0.0953274-0.9387398-0.1417866-1.4210281-0.0858707   C60.5461006,17.8982563,60.5334702,18.2067051,60.7552872,18.2097511z"/></g></svg>