<svg width="1024" height="1024" viewBox="0 0 1024 1024" xmlns="http://www.w3.org/2000/svg"><g fill="none" fill-rule="evenodd"><path d="M47.857 544.925c0-96.833 71.823-155.744 141.925-195.286 78.499-44.274 171.215-70.181 258.918-82.265 92.071-12.675 190.912-11.484 276.087 1.988 55.087 8.725 102.87 19.455 155.54 41.634 30.834 12.975 69.719 35.883 86.073 69.606 5.217 10.79 5.964 17.5 6.456 25.23l.068 27.845s-.085 32.952-.051 58.748c0 10.773-3.113 19.343-5.353 25.753 0 0 3.232-41.882-14.505-63.419-21.826-26.464-43.644-41.625-72.451-58.32-44.492-25.778-105.322-39.859-158.576-48.883-91.673-15.538-180.538-16.797-272.39-3.985-87.329 12.16-178.586 41.36-257.976 87.252-71.246 41.17-144.673 110.846-136.97 204.954 0 0-2.545-8.733-5.285-32.378-1.654-14.132-1.51-33.329-1.51-58.474" fill="#FFF"/><path d="M510.072 833.592c-223.206 0-409.427-103.852-453.037-241.985-4.266-13.55-7.719-32.541-9.178-46.682v29.044c0 19.283 2.061 37.135 5.488 56.109 30.216 166.491 226.778 279.668 456.727 279.668v-76.154" fill="#FFF"/><path d="M47.857 497.713c0 96.825 71.823 155.744 141.925 195.26 78.499 44.265 171.215 70.19 258.918 82.257 92.071 12.675 190.912 11.492 276.087-1.989 55.087-8.707 102.87-19.445 155.54-41.607 30.834-12.993 69.719-35.883 86.073-69.607 5.217-10.781 5.964-17.491 6.456-25.239l.068-27.835s-.085-32.961-.051-58.748c0-10.782-3.113-19.352-5.353-25.754 0 0 3.232 41.891-14.505 63.41-21.826 26.474-43.644 41.634-72.451 58.32-44.492 25.788-105.322 39.851-158.576 48.867-91.673 15.555-180.538 16.814-272.39 4.002-87.329-12.178-178.586-41.36-257.976-87.244-71.246-41.17-144.673-110.837-136.97-204.97 0 0-2.545 8.758-5.285 32.394-1.654 14.124-1.51 33.32-1.51 58.483" fill="#2CD9AA"/><path d="M510.072 385.736c255.61 0 462.8 67.686 462.8 165.857 0 12.718.103 67.027 0 85.692-1.009-23.773-11.926-38.008-14.293-41.719-50.947-76.917-232.435-133.788-448.507-133.788v-76.042" fill="#2CD9AA"/><path d="M972.873 405.344c-1.01 23.774-11.927 38-14.294 41.728-50.947 76.882-232.435 133.77-448.507 133.77v-22.496l-118.826 60.53 118.826 60.497v-22.488c255.61 0 462.8-67.67 462.8-165.84 0-12.735.103-67.035 0-85.7" fill="#FFF"/><path d="M628.898 170.892l-118.826-60.513v22.488c-229.95 0-426.511 113.185-456.727 279.668-3.427 18.99-5.488 36.834-5.488 56.125v29.053c1.46-14.158 4.912-33.124 9.178-46.682 43.61-138.167 229.831-242.01 453.037-242.01v22.393l118.826-60.522" fill="#2CD9AA"/></g></svg>