<svg xmlns="http://www.w3.org/2000/svg" data-name="Ebene 1" viewBox="0 0 48 48" x="0px" y="0px"><defs><style>.cls-1{fill:#fff;opacity:0;}</style></defs><title>CV Icons</title><path d="M45.99,13.84a1.14793,1.14793,0,0,0-.02-.21.58169.58169,0,0,0-.03-.19,2.2917,2.2917,0,0,0-.06994-.28,3.00667,3.00667,0,0,0-.37-.82.869.869,0,0,0-.07007-.1,2.06408,2.06408,0,0,0-.13989-.17,3.06289,3.06289,0,0,0-.36011-.36c-.05993-.05-.10986-.1-.17993-.15l-.09009-.06a3.00122,3.00122,0,0,0-.81982-.37,2.2917,2.2917,0,0,0-.28-.07.58258.58258,0,0,0-.19006-.03,1.14838,1.14838,0,0,0-.21009-.02A1.03289,1.03289,0,0,0,43,11H31V9a2.996,2.996,0,0,0-3-3H20a2.996,2.996,0,0,0-3,3v2H5a1.03289,1.03289,0,0,0-.15991.01,1.14838,1.14838,0,0,0-.21009.02.58258.58258,0,0,0-.19006.03,2.2917,2.2917,0,0,0-.28.07,3.00122,3.00122,0,0,0-.81982.37.86584.86584,0,0,0-.1001.07,2.06894,2.06894,0,0,0-.16992.14,3.06289,3.06289,0,0,0-.36011.36c-.05005.06-.1.11-.1499.18L2.5,12.34a3.00667,3.00667,0,0,0-.37.82,2.2917,2.2917,0,0,0-.06994.28.58169.58169,0,0,0-.03.19,1.14793,1.14793,0,0,0-.02.21A1.03546,1.03546,0,0,0,2,14V40a1.00291,1.00291,0,0,0,1,1H45a1.00291,1.00291,0,0,0,1-1V14A1.03546,1.03546,0,0,0,45.99,13.84ZM19,9a1.00291,1.00291,0,0,1,1-1h8a1.00291,1.00291,0,0,1,1,1v2H19ZM4,14.02c0-.03.01-.06.01-.09a.52774.52774,0,0,0,.01-.13,1.25312,1.25312,0,0,1,.1499-.36c.02-.03.05-.06.07007-.09l.03-.03.03-.03a1.5723,1.5723,0,0,1,.11987-.11c.01,0,.02-.01.03-.02.06006-.03.11011-.06.16-.08a.6393.6393,0,0,1,.16-.06h.03A.3416.3416,0,0,0,4.9,13.01.48687.48687,0,0,0,5.02,13H42.98c.03,0,.06006.01.09009.01A.52983.52983,0,0,0,43.2,13.02a1.25247,1.25247,0,0,1,.36011.15c.03.02.05994.05.09.07l.02991.03.03.03a1.552,1.552,0,0,1,.11011.12c0,.01.01.02.02.03.02991.06.05993.11.07983.16a.63871.63871,0,0,1,.06006.16v.03a.33963.33963,0,0,0,.01.1.48615.48615,0,0,0,.01.12V20a5.00181,5.00181,0,0,1-5,5H27.5V24a3.00879,3.00879,0,0,0-3-3h-1a3.00879,3.00879,0,0,0-3,3v1H9a5.00181,5.00181,0,0,1-5-5ZM22.5,24a1.00291,1.00291,0,0,1,1-1h1a1.00291,1.00291,0,0,1,1,1v4a1.00291,1.00291,0,0,1-1,1h-1a1.00291,1.00291,0,0,1-1-1ZM44,39H4V24.89A6.96976,6.96976,0,0,0,9,27H20.5v1a3.00883,3.00883,0,0,0,3,3h1a3.00883,3.00883,0,0,0,3-3V27H39a6.96976,6.96976,0,0,0,5-2.11Z"/><path d="M43.98,13.8v-.03a.63871.63871,0,0,0-.06006-.16A.6027.6027,0,0,1,43.98,13.8ZM4.61,13.08a.60353.60353,0,0,1,.19006-.06H4.77A.6393.6393,0,0,0,4.61,13.08Z"/><rect class="cls-1" width="48" height="48"/></svg>