<svg xmlns="http://www.w3.org/2000/svg" xmlns:xlink="http://www.w3.org/1999/xlink" version="1.1" x="0px" y="0px" viewBox="0 0 100 100" enable-background="new 0 0 100 100" xml:space="preserve"><g><path fill="#000000" stroke="#CD1719" stroke-width="3.63" stroke-linecap="round" d="M33.449-2.454"/></g><g><path d="M31.225,94.879c-9.406,0-17.058-7.653-17.058-17.061c0-2.924,1.316-5.647,3.608-7.474c0.161-0.127,0.328-0.25,0.495-0.37   c0.032-0.027,0.066-0.055,0.103-0.08l13.881-9.941l0.684-0.516c-3.036-1.872-7.071-6.403-7.071-10.376l0.123-22.604   c0-11.606,9.447-21.055,21.061-21.055l2.106,0.001c8.248,0,14.992,6.564,15.287,14.743c0.081,0.168,0.125,0.356,0.125,0.555v19.072   l0.269-0.174c1.811-1.247,3.968-1.917,6.209-1.918l0,0l0,0c6.076,0,11.022,4.945,11.022,11.021l-0.018,7.478   c0,3.531-1.735,6.839-4.638,8.854c-0.048,0.031-0.098,0.062-0.145,0.087L38.159,92.298c-0.08,0.058-0.165,0.102-0.252,0.138   c-2.208,1.602-4.349,2.4-6.531,2.436C31.326,94.876,31.276,94.879,31.225,94.879z M19.984,71.887   c-0.044,0.042-0.091,0.08-0.143,0.114c-0.161,0.108-0.32,0.226-0.472,0.346c-1.68,1.336-2.644,3.333-2.644,5.472   c0,7.953,6.431,14.429,14.366,14.502c0.044-0.005,0.089-0.008,0.134-0.008c1.769,0,3.487-0.672,5.405-2.116   c0.102-0.075,0.212-0.135,0.326-0.178l39.067-27.147c0.04-0.027,0.082-0.056,0.125-0.078c2.1-1.544,3.344-4,3.344-6.613   l0.018-7.479c0-4.663-3.797-8.459-8.464-8.459c-1.722,0.001-3.377,0.515-4.788,1.487l-1.689,1.094v8.527   c0,3.492-1.608,6.506-4.528,8.48l-8.631,5.596c-0.061,0.052-0.128,0.1-0.2,0.145c-0.062,0.034-0.124,0.069-0.187,0.104l-0.141,0.09   c-0.125,0.082-0.259,0.138-0.395,0.172c-3.012,1.312-7.29,0.732-10.023-0.581c-0.053-0.025-0.103-0.056-0.15-0.085l-5.772-3.809   L19.984,71.887z M41.647,63.083c2.284,1.069,5.927,1.5,8.073,0.385l8.907-5.771c2.173-1.469,3.382-3.729,3.382-6.347v-9.201   c0-0.014,0-0.026,0-0.04V27.131c-0.542,0.608-1.163,1.155-1.859,1.619l-15.06,8.304c-2.47,1.24-3.976,3.681-3.976,6.393v11.741   c0,2.848-1.669,4.63-4.362,4.667L41.647,63.083z M47.048,7.961c-10.201,0-18.501,8.3-18.501,18.504l-0.122,22.603   c0,4.707,4.349,8.229,8.238,8.229c0.935,0,1.892-0.251,1.892-2.109V43.447c0-3.687,2.048-7.003,5.345-8.656l14.922-8.225   c1.89-1.269,3.073-3.482,3.073-5.864c0-7.024-5.716-12.739-12.741-12.739L47.048,7.961z"/></g><g><path d="M47.049,48.579c-1.483,0-2.559-1.626-2.559-3.865c0-2.24,1.075-3.865,2.559-3.865c1.483,0,2.558,1.625,2.558,3.865   C49.607,46.953,48.532,48.579,47.049,48.579z"/></g><g><path d="M57.468,42.384c-1.482,0-2.558-1.625-2.558-3.864c0-2.24,1.075-3.866,2.558-3.866c1.483,0,2.559,1.625,2.559,3.866   C60.026,40.759,58.951,42.384,57.468,42.384z"/></g></svg>